{
  "accessors": [
    {
      "bufferView": 2,
      "componentType": 5126,
      "count": 41574,
      "max": [
        55.057254791259766,
        39.316917419433594,
        55.680389404296875
      ],
      "min": [
        -55.010990142822266,
        16.908744812011719,
        -55.738067626953125
      ],
      "type": "VEC3"
    },
    {
      "bufferView": 2,
      "byteOffset": 498888,
      "componentType": 5126,
      "count": 41574,
      "max": [
        0.99999099969863892,
        1,
        0.9999653697013855
      ],
      "min": [
        -0.99999099969863892,
        -1,
        -0.99996763467788696
      ],
      "type": "VEC3"
    },
    {
      "bufferView": 3,
      "componentType": 5126,
      "count": 41574,
      "max": [
        1,
        0.9999997615814209,
        0.99999409914016724,
        1
      ],
      "min": [
        -1,
        -0.9999997615814209,
        -1,
        -1
      ],
      "type": "VEC4"
    },
    {
      "bufferView": 1,
      "componentType": 5126,
      "count": 41574,
      "max": [
        0.99615699052810669,
        0.98354202508926392
      ],
      "min": [
        0.0051970002241432667,
        0.11585000157356262
      ],
      "type": "VEC2"
    },
    {
      "bufferView": 0,
      "componentType": 5125,
      "count": 246084,
      "max": [
        41573
      ],
      "min": [
        0
      ],
      "type": "SCALAR"
    }
  ],
  "asset": {
    "extras": {
      "author": "paburoviii (https://sketchfab.com/paburoviii)",
      "license": "CC-BY-4.0 (http://creativecommons.org/licenses/by/4.0/)",
      "source": "https://sketchfab.com/models/4414a1ba330f457a8174e439b7b45289",
      "title": "Oreo Cookie"
    },
    "generator": "Sketchfab-3.49.1",
    "version": "2.0"
  },
  "bufferViews": [
    {
      "buffer": 0,
      "byteLength": 984336,
      "byteOffset": 0,
      "name": "floatBufferViews",
      "target": 34963
    },
    {
      "buffer": 0,
      "byteLength": 332592,
      "byteOffset": 984336,
      "byteStride": 8,
      "name": "floatBufferViews",
      "target": 34962
    },
    {
      "buffer": 0,
      "byteLength": 997776,
      "byteOffset": 1316928,
      "byteStride": 12,
      "name": "floatBufferViews",
      "target": 34962
    },
    {
      "buffer": 0,
      "byteLength": 665184,
      "byteOffset": 2314704,
      "byteStride": 16,
      "name": "floatBufferViews",
      "target": 34962
    }
  ],
  "buffers": [
    {
      "byteLength": 2979888,
      "uri": "scene.bin"
    }
  ],
  "images": [
    {
      "uri": "textures/Oreo_Cookie_Material_metallicRoughness.png"
    },
    {
      "uri": "textures/Oreo_Cookie_Material_normal.png"
    },
    {
      "uri": "textures/Oreo_Cookie_Material_baseColor.png"
    }
  ],
  "materials": [
    {
      "doubleSided": true,
      "emissiveFactor": [
        0,
        0,
        0
      ],
      "name": "Oreo_Cookie_Material",
      "normalTexture": {
        "index": 1,
        "scale": 1,
        "texCoord": 0
      },
      "pbrMetallicRoughness": {
        "baseColorFactor": [
          1,
          1,
          1,
          1
        ],
        "baseColorTexture": {
          "index": 2,
          "texCoord": 0
        },
        "metallicFactor": 1,
        "metallicRoughnessTexture": {
          "index": 0,
          "texCoord": 0
        },
        "roughnessFactor": 1
      }
    }
  ],
  "meshes": [
    {
      "name": "Oreo_Cookie_Oreo_Cookie_Material_0",
      "primitives": [
        {
          "attributes": {
            "NORMAL": 1,
            "POSITION": 0,
            "TANGENT": 2,
            "TEXCOORD_0": 3
          },
          "indices": 4,
          "material": 0,
          "mode": 4
        }
      ]
    }
  ],
  "nodes": [
    {
      "children": [
        1
      ],
      "name": "RootNode (gltf orientation matrix)",
      "rotation": [
        -0.70710678118654746,
        -0,
        -0,
        0.70710678118654757
      ]
    },
    {
      "children": [
        2
      ],
      "name": "RootNode (model correction matrix)"
    },
    {
      "children": [
        3
      ],
      "matrix": [
        1,
        0,
        0,
        0,
        0,
        0,
        1,
        0,
        0,
        -1,
        0,
        0,
        0,
        0,
        0,
        1
      ],
      "name": "d02bccd3d3764908b2b30d514ee5f503.fbx"
    },
    {
      "children": [
        4
      ],
      "name": "RootNode"
    },
    {
      "children": [
        5
      ],
      "name": "Oreo_Cookie"
    },
    {
      "mesh": 0,
      "name": "Oreo_Cookie_Oreo_Cookie_Material_0"
    }
  ],
  "samplers": [
    {
      "magFilter": 9729,
      "minFilter": 9987,
      "wrapS": 10497,
      "wrapT": 10497
    }
  ],
  "scene": 0,
  "scenes": [
    {
      "name": "OSG_Scene",
      "nodes": [
        0
      ]
    }
  ],
  "textures": [
    {
      "sampler": 0,
      "source": 0
    },
    {
      "sampler": 0,
      "source": 1
    },
    {
      "sampler": 0,
      "source": 2
    }
  ]
}

